<?xml version="1.0" encoding="UTF-8"?>
<svg id="_レイヤー_1" data-name="レイヤー_1" xmlns="http://www.w3.org/2000/svg" viewBox="0 0 480.98 123.11">
  <defs>
    <style>
      .cls-1 {
        fill: #182987;
      }

      .cls-2 {
        fill: #606060;
      }
    </style>
  </defs>
  <g>
    <path class="cls-2" d="M0,18.21L17.46.88v28.02L45.45,1.2h20.67L0,67V18.21Z"/>
    <path class="cls-2" d="M120.4,33.81c0,10.64-3.35,18.93-10.03,24.88-6.69,5.95-14.65,8.93-23.88,8.93s-17.09-2.96-23.78-8.88c-6.69-5.92-10.03-14.23-10.03-24.93s3.34-18.84,10.03-24.83c6.69-5.99,14.65-8.98,23.88-8.98s16.34,2.22,21.32,6.67c4.98,4.45,8.31,8.71,9.98,12.79,1.67,4.08,2.51,8.86,2.51,14.35ZM69.73,33.81c0,5.15,1.64,9.2,4.92,12.14,3.28,2.94,7.19,4.42,11.74,4.42s8.26-1.44,11.54-4.31c3.28-2.88,4.92-6.96,4.92-12.24s-1.64-9.28-4.92-12.19c-3.28-2.91-7.19-4.36-11.74-4.36s-8.26,1.42-11.54,4.26c-3.28,2.84-4.92,6.94-4.92,12.29Z"/>
    <path class="cls-2" d="M122.1,19.2L140.16,1.08v65.94h-18.06V19.2Z"/>
    <path class="cls-2" d="M144.6,18.13L161.56,1.08h40.31l-16.99,17.06h-40.28ZM160.93,18.06L178.99,1.08v65.94h-18.06V18.06Z"/>
    <path class="cls-2" d="M189.73,19.2L207.79,1.08v65.94h-18.06V19.2ZM201.77,26.19h29.6v16.15h-23.58l-6.02-16.15ZM202.77,50.47h28.59v16.55h-23.58l-5.02-16.55ZM203.27,18.13l4.52-17.06h40.43l-17.06,17.06h-27.89Z"/>
    <path class="cls-2" d="M235.88,67.5v-23.5L278.82,1.1h23.58l-66.52,66.4ZM236.48,17.48L252.93,1.1l33.21,33.26v33.06l-49.66-49.94Z"/>
    <path class="cls-2" d="M315.14,19.17l18.06-18.09v65.84h-18.06V19.17ZM350.66,1.08c6.69,0,12.01,1.72,15.95,5.17,3.95,3.45,5.92,8.62,5.92,15.51,0,5.89-1.96,10.79-5.87,14.71s-9.08,5.87-15.5,5.87c-2.81,0-4.21-.27-4.21-.8l.4-.4,1.1-.5-10.74-8.13,8.13-.1c2.67,0,4.71-.71,6.12-2.13,1.4-1.42,2.11-3.2,2.11-5.36s-.62-3.85-1.86-5.06c-1.24-1.21-3.36-1.82-6.37-1.82h-12.64V1.08h17.46ZM372.03,67.4l-34.92-34.99h21.37l13.54,13.88v21.12Z"/>
    <path class="cls-2" d="M374.63,19.2l18.06-18.12v65.94h-18.06V19.2ZM386.67,26.19h29.6v16.15h-23.58l-6.02-16.15ZM387.68,50.47h28.59v16.55h-23.58l-5.02-16.55ZM388.18,18.13l4.51-17.06h40.43l-17.06,17.06h-27.89Z"/>
    <path class="cls-2" d="M459.92,50.47v16.55h-8.23c-8.83,0-16.24-3.15-22.22-9.46-5.99-6.31-8.98-13.92-8.98-22.85s3.51-17.18,10.54-23.75c7.02-6.58,15.35-9.86,24.98-9.86h24.98l-16.96,16.96h-8.83c-4.55,0-8.58,1.6-12.09,4.8-3.51,3.2-5.27,7.12-5.27,11.76,0,4.24,1.42,7.94,4.26,11.11,2.84,3.16,6.37,4.74,10.58,4.74h7.22Z"/>
  </g>
  <g>
    <path class="cls-1" d="M91.79,116.01s4.73-4.49,6.24-8.18l4.54,4.07c-1.61,2.03-4.82,3.97-10.78,4.12ZM113.03,104.23s.14,15.99-.14,18.49c0,0-6.81-6.76-8.14-7.38,0,0,2.55.19,3.69.19l-.28-12.2s-7.66.28-10.31-.14l-.47-5.68s9.7,0,10.93-.14l-.33-7.43,6.48.33-.33,7.52,8.37-.28.05,5.86s-8.32.9-9.51.85ZM121.16,108.25s3.78,3.5,6.48,3.59l-3.17,5.77s-4.68-3.55-6.34-5.96l3.03-3.41ZM122.63,95.25l-.9-3.69,2.98-.52v3.5s-1.23.28-2.08.71ZM126.08,90.9l2.93-.52-.28,3.45s-1.23.33-2.03.76l-.62-3.69Z"/>
    <path class="cls-1" d="M131.53,105.08c8.66-4.45,17.45-10.36,20.53-15.75l7,5.87s-3.36,4.87-8.23,8.23l.95,17.93h-6.48l.43-16.55c-4.54,1.09-9.04,1.51-14.19.28Z"/>
    <path class="cls-1" d="M200.59,108.68s-5.39-.09-9.89-.33c.38,6.1-2.98,13.95-14.19,13.67,7-4.82,8.51-10.22,7.85-14.14,0,0-7.9.71-13.15.8l-.14-6.24c9.32-.05,27.67-.14,29.7-.09l-.19,6.34ZM177.55,97.52l-.09-6.43s13.76.05,17.88.33l-.14,5.16s-12.68,1.13-17.64.95Z"/>
    <path class="cls-1" d="M210.81,104.66l-1.47-6.24s5.06-.76,8.8-1.32l-2.41-6.1,6.81-1.89s1.85,6.62,1.94,7.38c0,0,3.17-.9,8.61-1.94l.9,6.01s-5.01.8-9.27,1.28l1.18,3.26s6.81-1.23,8.94-1.66l.76,4.92c-3.83,1.18-4.78,1.51-7.47,2.36,0,0,2.93,8.94,3.55,10.17l-7.28,2.22c-1.09-4.4-1.47-6.29-2.46-9.89l-8.28,1.42s-1.37-3.26-2.22-5.91c0,0,5.53-1.09,9.36-1.8l-1.28-4.49c-2.46.57-4.59,1.42-8.7,2.22Z"/>
    <path class="cls-1" d="M259.81,109.25s8.61-1.14,15.37-5.53c-3.22,7.8-11.68,13.24-22.7,15.14,0,0-.28-24.97-.28-26.25l8.28.28-.66,16.36Z"/>
    <path class="cls-1" d="M293.78,108.87s-2.03,1.28-3.26,1.99c0,0-1.8-3.03-2.41-4.45l3.5-1.94s1.94,3.41,2.18,4.4ZM298.89,103.29s1.47,3.26,1.99,4.21l-3.55,2.13c-1.09-2.27-1.7-2.88-2.51-4.49l4.07-1.84ZM296.62,120.08v-.05s.05.05,0,.05ZM296.71,119.98c7-4.78,9.41-11.4,9.27-16.7l5.96,1.8c-1.04,6.67-6.2,15.37-15.23,14.9Z"/>
    <path class="cls-1" d="M326.18,107.59c2.27-6.95,2.22-12.25,1.47-17.78h7.09s-.05,2.84-.38,4.68c6.24.8,11.73,1.14,16.08,1.28.38,10.74-4.92,23.65-20.81,26.49,9.89-6.48,12.82-16.03,13.2-21.66,0,0-6.24-.8-9.13-1.32-.57,3.31-2.79,6.57-7.52,8.32Z"/>
    <path class="cls-1" d="M377.22,122.02s-4.49.05-6.39.05c0,0,.62-4.16.85-6.58l5.2.24.33,6.29ZM377.08,111.33s-2.18.19-4.92.33c0,0,.66-12.49,1.14-21.47l6.67.52s-2.46,18.31-2.88,20.62Z"/>
  </g>
</svg>