<?xml version="1.0" encoding="UTF-8"?>
<svg xmlns="http://www.w3.org/2000/svg" version="1.1" viewBox="0 0 1024 128">
  <defs>
    <style>
      .cls-1 {
        fill: #1e9bb1;
      }

      .cls-2 {
        fill: #122f5b;
      }

      .cls-3 {
        fill: #d70c18;
      }
    </style>
  </defs>
  <!-- Generator: Adobe Illustrator 28.6.0, SVG Export Plug-In . SVG Version: 1.2.0 Build 709)  -->
  <g>
    <g id="_レイヤー_1" data-name="レイヤー_1">
      <path class="cls-2" d="M122,107.87h69.96l-40.58-66.92-8.93,14.72-11.7-19.28-11.74,19.22-8.92-14.72-40.63,66.98h44.55l16.68-27.31,12.44,20.49h-16.96l-4.17,6.82ZM130.71,67.45l-20.53,33.6h-28.61l28.51-47.01,4.92,8.12-17.28,28.29h7.99l25.01-40.95,24.86,40.95h7.98l-17.12-28.21,4.94-8.14,28.46,46.95h-28.74l-20.4-33.6Z"/>
      <polygon class="cls-3" points="141.98 25.41 119.47 25.41 114.06 34.33 118.05 40.9 123.31 32.23 138.14 32.23 143.44 40.96 147.44 34.41 141.98 25.41"/>
      <g>
        <g>
          <path class="cls-2" d="M241.28,53.12h-21.4v7.83h17.34v8.06h-17.34v17.49h-8.3v-41.5h29.7v8.12Z"/>
          <path class="cls-2" d="M279.58,68.17c0,12.04-6.28,18.97-16.84,18.97s-16.78-6.76-16.78-18.85v-23.3h8.3v23.18c0,6.64,3.2,10.85,8.48,10.85s8.54-4.09,8.54-10.73v-23.3h8.3v23.18Z"/>
          <path class="cls-2" d="M312.19,69.18c0,10.85-4.86,17.96-15.71,17.96-8.3,0-13.81-4.98-15.89-12.27l8.12-2.19c1.6,4.21,3.73,6.23,7.77,6.23,5.1,0,7.41-3.26,7.41-9.49v-24.43h8.3v24.19Z"/>
          <path class="cls-2" d="M327.9,86.49h-8.3v-41.5h8.3v41.5Z"/>
          <path class="cls-2" d="M376.93,86.49h-9.55l-7.41-14.94h-8.36v14.94h-8.3v-41.5h19.33c7.83,0,14.29,4.33,14.29,13.16,0,6.23-2.67,10.14-7.94,12.21l7.94,16.13ZM368.39,58.33c0-3.73-2.25-5.28-5.93-5.28h-10.85v10.67h10.85c3.85,0,5.93-1.78,5.93-5.4Z"/>
          <path class="cls-2" d="M418.85,86.49h-9.13l-3.26-9.25h-15.18l-3.26,9.25h-8.89l15.89-41.5h8.06l15.77,41.5ZM403.61,69.36l-2.67-7.53c-.83-2.43-1.66-4.92-2.08-6.46-.41,1.54-1.24,4.03-2.08,6.46l-2.67,7.53h9.49Z"/>
          <path class="cls-2" d="M453.23,70.43c0,10.67-7.06,16.72-16.66,16.72-10.85,0-18.14-8.3-18.14-21.4s7.59-21.4,18.44-21.4c8.48,0,12.98,3.97,15.71,10.38l-7.89,3.26c-1.54-3.08-3.44-5.4-7.94-5.4-6.23,0-9.78,5.45-9.78,13.16s3.62,13.28,9.84,13.28c5.69,0,7.65-2.67,8.12-6.28h-6.58v-7.77h14.88v5.45Z"/>
        </g>
        <g>
          <g>
            <path class="cls-2" d="M217.95,108.08h-6.37v-9.57h6.37v1.39h-4.94v2.61h4.45v1.39h-4.45v2.78h4.94v1.39Z"/>
            <path class="cls-2" d="M295.12,108.08h-6.37v-9.57h6.37v1.39h-4.94v2.61h4.45v1.39h-4.45v2.78h4.94v1.39Z"/>
            <path class="cls-2" d="M244.82,108.08h-6.37v-9.57h6.37v1.39h-4.94v2.61h4.45v1.39h-4.45v2.78h4.94v1.39Z"/>
            <path class="cls-2" d="M227.39,108.08h-1.37l-3.81-6c-.23-.36-.56-.93-.71-1.18,0,.36.01,1.68.01,2.22v4.96h-1.39v-9.57h1.46l3.64,5.84c.25.4.66,1.11.79,1.35,0-.36-.01-1.72-.01-2.26v-4.94h1.39v9.57Z"/>
            <path class="cls-2" d="M236.43,99.92h-2.79v8.16h-1.44v-8.16h-2.79v-1.41h7.01v1.41Z"/>
            <path class="cls-2" d="M254.27,101.37c0,1.53-.81,2.48-2.11,2.8l1.96,3.91h-1.65l-1.9-3.79h-2.16v3.79h-1.41v-9.57h4.2c1.67,0,3.08.89,3.08,2.86ZM252.82,101.41c0-1-.66-1.55-1.63-1.55h-2.79v3.08h2.79c.96,0,1.63-.49,1.63-1.53Z"/>
            <path class="cls-2" d="M263.7,101.51c0,1.97-1.31,3.01-3.17,3.01h-2.5v3.57h-1.41v-9.57h4.01c1.76,0,3.08,1.01,3.08,2.99ZM262.24,101.51c0-1.05-.64-1.64-1.64-1.64h-2.57v3.3h2.57c1.09,0,1.64-.63,1.64-1.65Z"/>
            <path class="cls-2" d="M272.96,101.37c0,1.53-.81,2.48-2.11,2.8l1.96,3.91h-1.65l-1.9-3.79h-2.16v3.79h-1.41v-9.57h4.2c1.67,0,3.08.89,3.08,2.86ZM271.51,101.41c0-1-.66-1.55-1.63-1.55h-2.79v3.08h2.79c.96,0,1.63-.49,1.63-1.53Z"/>
            <path class="cls-2" d="M277.09,108.08h-1.44v-9.57h1.44v9.57Z"/>
            <path class="cls-2" d="M286.47,105.33c0,1.72-1.09,2.9-3.54,2.9-1.39,0-2.6-.6-3.4-1.55l1.03-1c.64.7,1.59,1.13,2.49,1.13,1.34,0,1.98-.46,1.98-1.39,0-.74-.56-1.11-2.16-1.59-2.02-.6-2.99-1.11-2.99-2.82s1.39-2.67,3.16-2.67c1.3,0,2.28.48,3.13,1.3l-1.01,1.03c-.6-.62-1.29-.92-2.23-.92-1.12,0-1.6.55-1.6,1.19s.44,1,2.09,1.49c1.89.57,3.06,1.18,3.06,2.89Z"/>
            <path class="cls-2" d="M310.07,108.08h-1.53l-.81-2.27h-3.83l-.79,2.27h-1.49l3.45-9.57h1.52l3.49,9.57ZM307.29,104.53l-.77-2.2c-.23-.68-.62-1.79-.72-2.2-.11.41-.45,1.5-.7,2.21l-.77,2.19h2.95Z"/>
            <path class="cls-2" d="M313.59,108.08h-1.44v-9.57h1.44v9.57Z"/>
            <path class="cls-2" d="M328.21,103.3c0,3.38-2.16,4.79-4.66,4.79h-2.61v-9.57h2.61c2.57,0,4.66,1.41,4.66,4.79ZM326.74,103.3c0-2.01-.93-3.39-3.2-3.39h-1.18v6.78h1.18c2.27,0,3.2-1.38,3.2-3.39Z"/>
            <path class="cls-2" d="M337.5,103.28c0,2.98-1.67,4.95-4.1,4.95s-4.06-1.94-4.06-4.92,1.67-4.95,4.09-4.95,4.07,1.94,4.07,4.92ZM336.04,103.31c0-2.17-1.12-3.53-2.65-3.53s-2.58,1.33-2.58,3.5,1.11,3.53,2.64,3.53,2.6-1.33,2.6-3.5Z"/>
            <path class="cls-2" d="M346.01,106.4c-.68,1.18-1.85,1.83-3.3,1.83-2.48,0-4.05-2.04-4.05-4.94s1.57-4.94,4.05-4.94c1.56,0,2.6.63,3.25,1.79l-1.27.79c-.49-.78-1-1.15-1.98-1.15-1.67,0-2.57,1.35-2.57,3.5s.9,3.5,2.57,3.5c1,0,1.61-.41,2.11-1.19l1.19.79Z"/>
            <path class="cls-2" d="M355.14,104.09c0,2.68-1.3,4.14-3.68,4.14s-3.6-1.53-3.6-4.17v-5.55h1.44v5.51c0,1.8.75,2.78,2.19,2.78s2.22-.93,2.22-2.68v-5.61h1.44v5.58Z"/>
            <path class="cls-2" d="M366.53,108.08h-1.41v-5.06c0-.57.01-1.41.03-1.68-.11.27-.38.96-.62,1.5l-2.32,5.39-2.3-5.39c-.23-.55-.51-1.23-.62-1.5.01.27.03,1.11.03,1.68v5.06h-1.35v-9.57h1.48l2.15,5.1c.23.55.53,1.24.66,1.64.14-.4.41-1.08.64-1.64l2.11-5.1h1.53v9.57Z"/>
            <path class="cls-2" d="M384.7,108.08h-1.37l-3.81-6c-.23-.36-.56-.93-.71-1.18,0,.36.01,1.68.01,2.22v4.96h-1.39v-9.57h1.46l3.64,5.84c.25.4.66,1.11.79,1.35,0-.36-.01-1.72-.01-2.26v-4.94h1.39v9.57Z"/>
            <path class="cls-2" d="M393.19,99.92h-2.79v8.16h-1.44v-8.16h-2.79v-1.41h7.01v1.41Z"/>
            <path class="cls-2" d="M406.55,105.33c0,1.72-1.09,2.9-3.54,2.9-1.39,0-2.6-.6-3.4-1.55l1.03-1c.64.7,1.59,1.13,2.49,1.13,1.34,0,1.98-.46,1.98-1.39,0-.74-.56-1.11-2.16-1.59-2.02-.6-2.99-1.11-2.99-2.82s1.39-2.67,3.16-2.67c1.3,0,2.28.48,3.13,1.3l-1.01,1.03c-.6-.62-1.29-.92-2.23-.92-1.12,0-1.6.55-1.6,1.19s.44,1,2.09,1.49c1.89.57,3.06,1.18,3.06,2.89Z"/>
            <path class="cls-2" d="M424.67,108.08h-1.53l-.81-2.27h-3.83l-.79,2.27h-1.49l3.45-9.57h1.52l3.49,9.57ZM421.9,104.53l-.77-2.2c-.23-.68-.62-1.79-.72-2.2-.11.41-.45,1.5-.7,2.21l-.77,2.19h2.95Z"/>
            <path class="cls-2" d="M433.7,101.37c0,1.53-.81,2.48-2.11,2.8l1.96,3.91h-1.65l-1.9-3.79h-2.16v3.79h-1.41v-9.57h4.2c1.67,0,3.08.89,3.08,2.86ZM432.25,101.41c0-1-.66-1.55-1.63-1.55h-2.79v3.08h2.79c.96,0,1.63-.49,1.63-1.53Z"/>
            <path class="cls-2" d="M443.21,106.4c-.68,1.18-1.85,1.83-3.3,1.83-2.48,0-4.05-2.04-4.05-4.94s1.57-4.94,4.05-4.94c1.56,0,2.6.63,3.25,1.79l-1.27.79c-.49-.78-1-1.15-1.98-1.15-1.67,0-2.57,1.35-2.57,3.5s.9,3.5,2.57,3.5c1,0,1.61-.41,2.11-1.19l1.19.79Z"/>
            <path class="cls-2" d="M453.23,108.08h-1.44v-4.27h-4.4v4.27h-1.44v-9.57h1.44v3.87h4.4v-3.87h1.44v9.57Z"/>
          </g>
          <path class="cls-2" d="M375.52,108.08h-6.37v-9.57h6.37v1.39h-4.94v2.61h4.45v1.39h-4.45v2.78h4.94v1.39Z"/>
          <path class="cls-2" d="M415.2,108.08h-6.37v-9.57h6.37v1.39h-4.94v2.61h4.45v1.39h-4.45v2.78h4.94v1.39Z"/>
        </g>
      </g>
      <g>
        <g>
          <rect class="cls-1" x="591.02" y="21.47" width="9.33" height="89.9" rx="1.76" ry="1.76"/>
          <rect class="cls-1" x="573.39" y="31.45" width="9.33" height="69.96" rx="1.76" ry="1.76"/>
          <rect class="cls-2" x="555.76" y="40.87" width="9.33" height="51.12" rx="1.76" ry="1.76"/>
          <rect class="cls-2" x="626.28" y="57.17" width="9.33" height="18.51" rx="1.76" ry="1.76"/>
          <rect class="cls-2" x="608.65" y="40.87" width="9.33" height="51.12" rx="1.76" ry="1.76"/>
          <rect class="cls-2" x="538.14" y="57.17" width="9.33" height="18.51" rx="1.76" ry="1.76"/>
        </g>
        <g>
          <g>
            <path class="cls-2" d="M661.4,66.44s3.02-2.87,4.53-5.58c.27-.48.91-.58,1.32-.21l2.14,1.92c.38.34.38.93.01,1.27-1.44,1.35-3.91,2.5-7.99,2.6ZM678.4,57.02s.08,8.69-.02,12.87c-.02.75-.92,1.12-1.46.6-1.69-1.64-4.43-4.23-5.15-4.57,0,0,2.04.15,2.95.15l-.23-9.77s-4.99.19-7.53-.03c-.42-.04-.75-.37-.78-.79l-.24-2.91c-.04-.5.35-.93.85-.93,2.09,0,7.04-.02,7.81-.11l-.22-5c-.02-.51.4-.92.9-.9l3.39.17c.47.02.84.42.82.9l-.23,5.17,5.82-.2c.48-.02.89.37.89.85l.02,3.03c0,.44-.33.82-.77.86-1.78.19-6.09.63-6.83.6ZM685.53,60.77c.79.65,2.21,1.7,3.54,2.14.5.17.71.76.46,1.22l-1.49,2.71c-.26.47-.87.59-1.29.26-1.02-.82-2.76-2.29-3.82-3.56-.27-.32-.26-.8.03-1.12l1.39-1.56c.31-.34.83-.39,1.18-.1ZM685.85,48.87l-.27-1.1c-.12-.48.2-.97.69-1.05l.47-.08c.53-.09,1.01.31,1.01.85v1.12c0,.38-.24.71-.6.82-.07.02-.13.04-.2.06-.47.15-.98-.13-1.09-.62ZM689.68,46.19l.41-.07c.56-.1,1.05.36,1.01.92l-.09,1.07c-.03.35-.26.64-.59.75-.04.01-.09.03-.13.04-.5.17-1.05-.14-1.13-.67l-.17-1.05c-.08-.47.23-.91.7-.99Z"/>
            <path class="cls-2" d="M693.2,57.7c6.5-3.34,13.11-7.71,15.93-11.81.29-.42.87-.49,1.25-.17l4.23,3.55c.35.3.41.82.13,1.19-.95,1.23-3.18,3.91-6.1,5.92l.71,13.44c.03.49-.37.91-.86.91h-3.4c-.48,0-.87-.4-.86-.88l.32-12.37c-3.63.87-7.23,1.21-11.36.23Z"/>
            <path class="cls-2" d="M742.33,60.56c-1.43-.03-4.44-.11-7.06-.25.3,4.88-2.39,11.17-11.36,10.94,5.6-3.86,6.81-8.18,6.28-11.32,0,0-5.5.49-9.66.62-.48.01-.88-.36-.89-.84l-.07-3.26c-.01-.48.37-.88.85-.88,6.86-.03,18.51-.09,22.02-.08.48,0,.87.4.86.89l-.1,3.34c-.01.47-.4.84-.87.83ZM724.73,50.81l-.05-3.44c0-.48.38-.88.86-.87,2.44.01,9.33.06,12.6.21.47.02.83.41.82.88l-.07,2.52c-.01.44-.35.8-.79.83-2.25.19-8.9.73-12.52.71-.47,0-.84-.38-.85-.85Z"/>
            <path class="cls-2" d="M749.65,56.54l-.77-3.27c-.11-.49.21-.97.71-1.05,1.37-.21,4.01-.6,6.12-.92l-1.58-3.99c-.19-.47.08-1.01.57-1.14l3.7-1.03c.46-.13.93.14,1.06.6.42,1.52,1.27,4.62,1.32,5.08,0,0,2.19-.62,6-1.38.48-.1.95.23,1.02.72l.46,3.07c.07.47-.25.9-.71.98-1.36.21-4.12.62-6.58.89l.95,2.61s4.08-.74,6.28-1.16c.48-.09.93.23,1.01.71l.36,2.32c.06.42-.19.83-.6.95-2.49.77-3.29,1.05-5.27,1.67,0,0,1.68,5.12,2.5,7.29.17.46-.08.98-.56,1.12l-4.06,1.24c-.47.14-.97-.14-1.09-.62-.71-2.91-1.03-4.4-1.75-7.02l-5.95,1.02c-.4.07-.79-.15-.94-.52-.29-.72-.78-1.95-1.2-3.16-.17-.49.13-1.02.64-1.12,1.47-.29,4.35-.85,6.54-1.25l-1.02-3.6c-1.8.41-3.37,1.02-6.13,1.61-.46.1-.92-.19-1.02-.64Z"/>
            <path class="cls-2" d="M783.95,56.41s-3.75.15-6.47.43c-.5.05-.93-.33-.94-.83l-.13-3.96c-.02-.49.38-.89.87-.89,2.43.03,9.08.11,10.99.14l-.16-4.79c-.02-.49.37-.89.86-.89h4.04c.5,0,.9.43.86.93-.12,1.47-.36,4.21-.41,4.67l5.15-.13c.49-.01.9.39.88.89l-.13,3.93c-.02.48-.42.85-.9.83-1.51-.07-4.53-.22-5.45-.3,0,0,.17,9.66.06,14.18-.02.68-.79,1.07-1.35.68-3.06-2.1-2.9-2.05-6.1-4.04,0,0,1.2.05,2.5.07.48,0,.87-.38.87-.85.01-2,.03-6.97.03-9.48-2.27,5.56-7.04,9.09-13.59,8.97,5.79-3.52,8.03-7.87,8.52-9.58Z"/>
            <path class="cls-2" d="M811.98,54.56c-1.08-.63-3.02-1.75-4.15-2.44-.41-.25-.54-.79-.28-1.2l1.79-2.79c.23-.35.67-.49,1.05-.33.9.38,2.56,1.1,4.11,1.9.42.22.59.73.37,1.16l-1.71,3.36c-.22.44-.77.6-1.2.36ZM808.83,63.84c8.9-.95,13.92-4.6,19.04-9.47-1.26,8.03-7.11,13.86-16.99,15.6-.4.07-.79-.15-.95-.53l-1.8-4.42c-.21-.53.13-1.12.7-1.18Z"/>
            <path class="cls-2" d="M832.25,53.73l-.05-3.44c0-.48.38-.88.87-.87,3.17.04,14.07.17,18.65.02.42-.01.79.28.87.69,1.96,10.41-3.35,18.58-12.49,20.06,5.34-5.04,7.27-10.6,7.08-16.28,0,0-10.42.56-14.05.67-.48.01-.87-.37-.88-.85ZM860.16,49.63c-.3,1.63-2.23,2.8-4.13,1.85-1.67-.87-1.89-2.73-1.21-3.86,1.14-1.89,3.1-1.51,3.79-1.14,1.63.8,1.74,2.2,1.55,3.14ZM857.89,47.93c-.42-.19-.98-.15-1.4.42-.34.53-.04,1.4.57,1.63.68.19,1.29-.15,1.4-1.06,0-.19-.08-.72-.57-.98Z"/>
            <path class="cls-2" d="M870.84,61.03s6.89-.91,12.3-4.43c-2.48,6.01-8.84,10.26-17.16,11.93-.52.1-1.01-.3-1.02-.83-.04-3.59-.18-15.63-.21-19.09,0-.49.4-.88.89-.87l4.86.17c.48.02.85.42.83.89l-.49,12.23Z"/>
            <path class="cls-2" d="M892.74,71.26c-.86,0-2.17.02-3.22.03-.52,0-.93-.46-.85-.98.13-.92.32-2.31.45-3.48.05-.45.44-.78.89-.76l2.58.12c.44.02.8.37.82.81l.18,3.36c.03.49-.36.9-.85.91ZM892.85,62.75c-.53.04-1.35.1-2.31.16-.51.03-.94-.39-.91-.9.13-2.53.51-9.63.81-15.36.03-.48.44-.85.93-.81l3.55.28c.49.04.85.48.79.97-.39,2.92-1.63,12.08-2.08,14.94-.06.39-.38.69-.78.72Z"/>
          </g>
          <g>
            <g>
              <path class="cls-2" d="M675.91,92.91h-1.93l-1.02-2.87h-4.83l-1,2.87h-1.88l4.35-12.08h1.92l4.4,12.08ZM672.41,88.42l-.97-2.78c-.29-.86-.78-2.26-.92-2.78-.14.52-.57,1.9-.88,2.8l-.97,2.76h3.73Z"/>
              <path class="cls-2" d="M680.36,92.91h-1.81v-12.08h1.81v12.08Z"/>
              <path class="cls-2" d="M697.55,80.82l-4.14,12.08h-1.92l-4.2-12.08h1.97l2.52,7.7c.22.71.57,1.78.67,2.21.1-.43.45-1.52.67-2.23l2.49-7.68h1.93Z"/>
              <path class="cls-2" d="M709.14,86.85c0,3.76-2.11,6.25-5.18,6.25s-5.13-2.45-5.13-6.22,2.11-6.25,5.16-6.25,5.14,2.45,5.14,6.22ZM707.29,86.88c0-2.74-1.42-4.45-3.35-4.45s-3.26,1.67-3.26,4.42,1.4,4.45,3.33,4.45,3.28-1.67,3.28-4.42Z"/>
              <path class="cls-2" d="M714.11,92.91h-1.81v-12.08h1.81v12.08Z"/>
              <path class="cls-2" d="M726.55,90.79c-.86,1.48-2.33,2.31-4.16,2.31-3.13,0-5.11-2.57-5.11-6.23s1.99-6.23,5.11-6.23c1.97,0,3.28.79,4.11,2.26l-1.61,1c-.62-.98-1.26-1.45-2.5-1.45-2.11,0-3.25,1.71-3.25,4.42s1.14,4.42,3.25,4.42c1.26,0,2.04-.52,2.66-1.5l1.5,1Z"/>
              <path class="cls-2" d="M753.98,92.91h-1.93l-1.02-2.87h-4.83l-1,2.87h-1.88l4.35-12.08h1.92l4.4,12.08ZM750.47,88.42l-.97-2.78c-.29-.86-.78-2.26-.91-2.78-.14.52-.57,1.9-.88,2.8l-.97,2.76h3.73Z"/>
              <path class="cls-2" d="M765.03,92.91h-1.73l-4.82-7.58c-.29-.45-.71-1.17-.9-1.48,0,.45.02,2.12.02,2.8v6.27h-1.76v-12.08h1.85l4.59,7.37c.31.5.83,1.4,1,1.71,0-.45-.02-2.18-.02-2.85v-6.23h1.76v12.08Z"/>
              <path class="cls-2" d="M777.56,92.91h-1.93l-1.02-2.87h-4.83l-1,2.87h-1.88l4.35-12.08h1.92l4.4,12.08ZM774.05,88.42l-.97-2.78c-.29-.86-.78-2.26-.91-2.78-.14.52-.57,1.9-.88,2.8l-.97,2.76h3.73Z"/>
              <path class="cls-2" d="M787.6,92.91h-7.84v-12.08h1.81v10.31h6.03v1.78Z"/>
              <path class="cls-2" d="M797.76,80.82l-4.33,7.3v4.78h-1.81v-4.78l-4.33-7.3h2.12l1.88,3.33c.41.74,1.04,1.95,1.24,2.4.21-.45.81-1.61,1.24-2.38l1.9-3.35h2.09Z"/>
              <path class="cls-2" d="M807.42,89.44c0,2.18-1.38,3.66-4.47,3.66-1.76,0-3.28-.76-4.3-1.95l1.29-1.26c.81.88,2,1.43,3.14,1.43,1.69,0,2.5-.59,2.5-1.76,0-.93-.71-1.4-2.73-2-2.56-.76-3.78-1.4-3.78-3.56s1.76-3.37,3.99-3.37c1.64,0,2.88.6,3.95,1.64l-1.28,1.29c-.76-.78-1.62-1.16-2.81-1.16-1.42,0-2.02.69-2.02,1.5s.55,1.26,2.64,1.88c2.38.73,3.87,1.48,3.87,3.64Z"/>
              <path class="cls-2" d="M812.55,92.91h-1.81v-12.08h1.81v12.08Z"/>
              <path class="cls-2" d="M824.04,89.44c0,2.18-1.38,3.66-4.47,3.66-1.76,0-3.28-.76-4.3-1.95l1.29-1.26c.81.88,2,1.43,3.14,1.43,1.69,0,2.5-.59,2.5-1.76,0-.93-.71-1.4-2.73-2-2.56-.76-3.78-1.4-3.78-3.56s1.76-3.37,3.99-3.37c1.64,0,2.88.6,3.95,1.64l-1.28,1.29c-.76-.78-1.62-1.16-2.81-1.16-1.42,0-2.02.69-2.02,1.5s.55,1.26,2.64,1.88c2.38.73,3.87,1.48,3.87,3.64Z"/>
              <path class="cls-2" d="M851.38,92.91h-1.73l-4.82-7.58c-.29-.45-.71-1.17-.9-1.48,0,.45.02,2.12.02,2.8v6.27h-1.76v-12.08h1.85l4.59,7.37c.31.5.83,1.4,1,1.71,0-.45-.02-2.18-.02-2.85v-6.23h1.76v12.08Z"/>
              <path class="cls-2" d="M863.48,88.18c0,3.11-1.9,4.92-4.59,4.92-3.13,0-5.11-2.57-5.11-6.23s1.99-6.23,5.11-6.23c1.97,0,3.28.79,4.11,2.26l-1.59.98c-.62-.98-1.28-1.43-2.52-1.43-2.11,0-3.26,1.71-3.26,4.42s1.16,4.42,3.26,4.42c1.97,0,2.74-1.3,2.74-2.71v-.05h-1.97v-1.74h3.82v1.4Z"/>
              <path class="cls-2" d="M868.82,92.91h-1.81v-12.08h1.81v12.08Z"/>
              <path class="cls-2" d="M882.09,92.91h-1.73l-4.82-7.58c-.29-.45-.71-1.17-.9-1.48,0,.45.02,2.12.02,2.8v6.27h-1.76v-12.08h1.85l4.59,7.37c.31.5.83,1.4,1,1.71,0-.45-.02-2.18-.02-2.85v-6.23h1.76v12.08Z"/>
            </g>
            <path class="cls-2" d="M737.03,92.91h-8.04v-12.08h8.04v1.76h-6.23v3.29h5.62v1.76h-5.62v3.51h6.23v1.76Z"/>
            <path class="cls-2" d="M893.03,92.91h-8.04v-12.08h8.04v1.76h-6.23v3.29h5.62v1.76h-5.62v3.51h6.23v1.76Z"/>
            <path class="cls-2" d="M839.45,92.91h-8.04v-12.08h8.04v1.76h-6.23v3.29h5.62v1.76h-5.62v3.51h6.23v1.76Z"/>
          </g>
        </g>
      </g>
    </g>
  </g>
</svg>